<svg xmlns="http://www.w3.org/2000/svg" xmlns:xlink="http://www.w3.org/1999/xlink" viewBox="0 0 329 268" version="1.1">
        <g id="UI-Library" stroke="none" stroke-width="1" fill-rule="evenodd">
            <g id="08-Logos" transform="translate(-861.000000, -331.000000)" fill-rule="nonzero">
                <g id="Logos-:-Dunhill-Long-Tail" transform="translate(122.000000, 100.000000)">
                    <g id="Light" transform="translate(612.000000, 74.000000)">
                        <g id="Logo-/-Dunhill-/-Long-Tail-/-Light" transform="translate(127.000000, 157.000000)" style="
    /* fill: red; */
">
                            <g id="L" transform="translate(314.000000, 0.000000)">
                                <rect id="Rectangle" x="0" y="0" width="15" height="265"></rect>
                            </g>
                            <g id="L" transform="translate(292.000000, 0.000000)">
                                <rect id="Rectangle" x="0" y="0" width="15" height="265"></rect>
                            </g>
                            <g id="I" transform="translate(268.000000, 198.000000)">
                                <rect id="Rectangle" x="0" y="0" width="15" height="67"></rect>
                            </g>
                            <g id="H" transform="translate(205.000000, 0.000000)">
                                <path d="M55,218.864162 C55,204.213121 43.6156723,196.312802 32.206258,196.312802 C25.3475643,196.312802 18.5591133,199.042464 14.2241379,205.165211 L14.2241379,0 L0,0 L0,265 L14.2241379,265 L14.2241379,224.110784 C14.2241379,214.12397 22.0963328,209.095113 29.3162744,209.095113 C35.3119869,209.095113 40.7758621,212.59455 40.7758621,219.811187 L40.7758621,265 L55,265 L55,218.864162 L55,218.864162 Z" id="Path"></path>
                            </g>
                            <g id="N" transform="translate(141.000000, 197.000000)">
                                <path d="M55,22.3240932 C55,7.82070186 43.6156723,0 32.206258,0 C25.3475643,0 18.5591133,2.70215276 14.2241379,8.7631967 L14.2241379,2.41639634 L0,2.41639634 L0,68 L14.2241379,68 L14.2241379,27.5228546 C14.2241379,17.6366853 22.0963328,12.6585078 29.3162744,12.6585078 C35.3119869,12.6585078 40.7758621,16.1226777 40.7758621,23.266588 L40.7758621,68 L55,68 L55,22.3291065 L55,22.3240932 Z" id="Path"></path>
                            </g>
                            <g id="U" transform="translate(77.000000, 200.000000)">
                                <path d="M0,45.6759068 C0,60.1792981 11.3843277,68 22.793742,68 C29.6524357,68 36.4408867,65.2978472 40.7758621,59.2368033 L40.7758621,65.5836037 L55,65.5836037 L55,0 L40.7758621,0 L40.7758621,40.4771454 C40.7758621,50.3633147 32.9036672,55.3414922 25.6837256,55.3414922 C19.6880131,55.3414922 14.2241379,51.8773223 14.2241379,44.733412 L14.2241379,0 L0,0 L0,45.6708935 L0,45.6759068 Z" id="Path"></path>
                            </g>
                            <g id="D">
                                <path d="M53.8831283,265.548873 L68,265.548873 L68,0 L53.8831283,0 L53.8831283,205.620602 C48.7243702,199.55622 40.9961921,196.785382 33.2530756,196.785382 C13.4745167,196.785382 0,212.344707 0,232.35463 C0,252.364552 13.4745167,268 33.2530756,268 C40.9912127,268 48.7243702,265.224086 53.8831283,259.159705 L53.8831283,265.553948 L53.8831283,265.548873 Z M53,233.038355 C53,248.349528 43.5362688,256 34,256 C24.4637312,256 15,248.344414 15,233.038355 C15,217.732296 24.5362688,210 34,210 C43.4637312,210 53,217.727182 53,233.038355" id="Shape"></path>
                            </g>
                        </g>
                    </g>
                </g>
            </g>
        </g>
    </svg>